<svg version="1" xmlns="http://www.w3.org/2000/svg" width="666.667" height="666.667" viewBox="0 0 500.000000 500.000000"><path d="M233 5.1c-32.4 1.9-67.3 11.6-96.6 26.8C67.8 67.7 20.4 132.5 7 208.7c-10.6 60.7 2.9 125.9 36.8 176.8 10.4 15.6 18.8 25.9 31.4 38.5 38.8 39.1 87.3 63 143.3 70.6 14.6 2 47.4 2 62 0 46.8-6.4 86.9-23.5 123.1-52.3 40.8-32.6 70.9-79.1 84-129.8 10.8-41.9 10.6-83.9-.5-126.1-8.4-31.6-25.3-64.8-46.5-91C403.9 49.9 349.6 18.1 291 8c-9.4-1.7-40.8-4.4-44.5-3.8-.5 0-6.6.4-13.5.9zm54.6 4.8c51.8 8.8 97.2 31.8 133 67.6 20.9 20.9 34.5 39.7 46.9 65 8.9 18.1 13.5 30.4 18 47.9 5.7 22.4 6.9 33.1 6.9 60.1s-1.2 37.7-6.9 60.1c-4.5 17.5-9.1 29.8-18 47.9-34.3 70.3-100.3 119-179.6 132.6-11.5 2-16.9 2.3-38.4 2.3-21.1 0-26.9-.3-37.5-2.2-27.3-4.7-46.5-10.9-70.5-22.7-48.3-23.8-86.6-62.1-110-110-8.9-18.1-13.5-30.4-18-47.9-5.7-22.4-6.9-33.1-6.9-60.1s1.2-37.7 6.9-60.1c4.5-17.5 9.1-29.8 18-47.9 23.7-48.5 63.6-88 113-111.6 25.8-12.4 55.2-20.6 83.5-23.3 11.7-1.1 47.8.3 59.6 2.3z"/><path d="M244.8 25.4L239.2 38h4.3c3.5 0 4.5-.4 5-2 .5-1.7 1.5-2 5.7-2 4 0 5.1.4 5.5 1.9.3 1.3 1.7 2.1 4.5 2.5 2.2.4 4.2.5 4.4.3.3-.3-8.4-23.6-9.2-24.6-.2-.2-2.3-.6-4.6-.8l-4.4-.5-5.6 12.6zm11.7.3c.6 3.2.5 3.3-2.4 3.3h-3l1.6-4.6c1.7-4.9 2.5-4.6 3.8 1.3zM218.1 16.1c-3.5.4-6.5.9-6.6 1.1-.5.5 2.2 22.9 2.9 23.5.6.7 21.6-1.4 22.4-2.1.2-.3.1-1.4-.3-2.6-.6-1.9-1.3-2.1-7.8-1.8-6.7.3-7.2.1-7.5-1.8-.3-1.8.4-2.2 3.5-2.7 2.1-.4 5-.7 6.6-.7 2.2 0 2.7-.4 2.7-2.6v-2.5l-7 .7c-6.6.6-7 .5-7-1.3 0-2.1 3.7-3.3 10.8-3.3 2.7 0 3.2-.3 3.2-2.5 0-2.3-.3-2.5-4.7-2.4-2.7.1-7.7.5-11.2 1zM281.4 16.7c-7 1.4-11 13.8-6.3 19.7 4.5 5.7 15.2 7.5 20.3 3.5 3.4-2.7 3.3-4.4-.5-5.9-2.7-1.2-3.3-1.1-4.1.3-1.2 2.2-7.1 2.3-8.8.2-1.7-2.1-.6-9.6 1.6-11.2 2.6-1.9 6.2-1.6 7.6.7.9 1.4 2.4 2 5 2 2.1 0 3.8-.4 3.8-.9 0-2.5-5.3-6.9-9.4-8-4.5-1.1-5.4-1.2-9.2-.4zM189.2 21c-4 .9-7.5 2-7.8 2.2-.5.6 4.5 21.9 5.5 23 .3.4 2.2.3 4.1-.1 3.7-.8 3.8-1.2 2.6-6.8-.7-3-.5-3.3 2.1-3.9 4.8-1.2 8.3-3.4 9.3-5.9 1.3-3.4-.7-8.4-3.7-9.6-3-1.1-3.1-1.1-12.1 1.1zm8.2 5.7c.8 1.9-1.7 4.3-4.5 4.3-1.6 0-3.3-4.3-2.1-5.5 1.3-1.2 6-.4 6.6 1.2zM304.7 32.7c-2 6.4-3.5 11.8-3.4 12 1 .9 20.3 6.3 21.4 5.9.7-.3 1.3-1.4 1.3-2.5 0-1.5-1.4-2.3-6.2-3.8-6.2-1.8-7.7-3.4-6-6.1.7-.9 2.1-.8 6.7.8 3.2 1.1 5.9 1.9 6 1.8.2-.2.5-1.2.9-2.4.6-1.8-.1-2.3-5.4-3.9-4.5-1.4-6-2.3-6-3.7 0-2.2 1.8-2.3 8.6-.1 5.8 1.8 6 1.8 6.6-1.1.2-1.7-1-2.4-8.2-4.6-4.7-1.5-9.4-3-10.6-3.4-1.9-.6-2.4.4-5.7 11.1zM230 46.7c-43.6 4.4-82.4 21.1-115.2 49.3-24.3 21-42.2 46.2-55.7 78.4-1 2.4-1.6 2.7-3.7 2.2-1.5-.4-4-.9-5.8-1.2l-3.1-.5 4.6 4.1 4.7 4.1-1.8 5.7c-17.4 55.8-9.3 117.9 21.8 167.9 12 19.4 31.1 40.5 48.2 53.3 4.7 3.5 8.7 6.5 8.9 6.6.1.1-.9 1.9-2.4 3.9-1.5 1.9-2.5 3.8-2.2 4.1.4.5 4.6-.4 11-2.2 2.5-.8 2.1 1.5-1.3 6.1-1.6 2.2-3.7 5.7-4.6 7.8-.9 2.1-2.5 4.2-3.6 4.8-1.5.8-1.8 1.7-1.3 3.7.9 3.7 2.1 4.9 8 8.3 5.8 3.4 11.4 3.8 13.8 1.1 2.9-3.2 2-6.2-2.9-11-3.6-3.4-4.3-4.6-3.3-5.3 2.2-1.4 2.8-1.1 3.5 1.4.3 1.4 2 3.1 4 4l3.4 1.7v-2.7c0-1.5-.9-3.7-2.1-4.9l-2.1-2.2 5.1-1.1c4.8-1 5.4-.9 17.3 3.9 38.7 15.5 82.2 18.4 123.8 8.3 10.5-2.5 24.2-7.2 33.2-11.2 4.3-2 5.4-2.1 11-1.1 8.3 1.5 9.7 2.6 14.6 10.7 2.3 3.7 4.6 7.4 5.1 8.2.7 1.2 1.5 1 4.5-.8 2-1.3 3.3-2.7 3-3.3-.4-.6-.8-2.8-1-4.9-.3-3.4 0-4.1 2.6-5.4 3-1.6 3.9-3.8 2-5-.6-.4-2.6.3-4.4 1.4-3 1.9-3.4 1.9-4 .5-.9-2.3-1-2.2 3.3-4.8 4.3-2.7 4.6-5 1.2-9.1-4.4-5.3-4.7-4.7 4.2-11.6 28.8-22.3 51.9-53.1 65.1-86.9 9.1-23.5 12.6-41.4 13.3-68.5.6-22.1-.7-34.6-5.2-53.3l-2.5-10.4 2.2-1.9c1.3-1 2.6-1.8 3-1.9.4 0 1.2-.9 1.9-2.1.9-1.8.8-2-.9-1.5-1.3.5-.7-.6 2-3.5 2.2-2.3 3.7-4.3 3.5-4.5-.2-.2-3 1.2-6.3 3.1-3.2 2-6.5 3.4-7.3 3.3-.7-.2-2.6-3.5-4.1-7.3-19.8-51.3-62.5-93.8-114.9-114.5-24.4-9.7-63.1-16.5-63.1-11.1 0 .4 3.7 1.1 8.3 1.4 19.1 1.3 46.1 8.7 66 18.1 32.8 15.3 62.5 41.2 82.7 72.1 5.1 7.8 16.2 29.7 19.4 38.2 1.5 4.2 1.5 4.3-.7 4.7-1.2.2-4.7.9-7.7 1.5-3 .7-9.3 1.6-14 2.2-49.3 5.8-59.1 7.6-105 20-10.8 3-17 8.7-17 15.9 0 4.1 3.6 9.2 8.2 11.6 2.4 1.3 2.7 1.9 2.3 4.7-.6 3.2-2.8 5.7-5.2 5.7-.7 0-1.3.4-1.3.9s-1.6 1.2-3.5 1.5c-1.9.4-3.5 1.1-3.5 1.6 0 1.6-3.6 1.1-5.1-.6-.7-.8-3-2.4-5.1-3.5-3.7-1.9-7.8-7.9-7.8-11.4 0-.8-.9-2.4-2-3.5s-2-2.5-2-3c0-.6-.4-1-1-1-1.5 0-1.3-16.3.3-18 .6-.8-.5 0-2.6 1.8-4.1 3.5-6.8 4-8.7 1.7-1-1.3-.6-2.1 2.9-5.3 2.2-2 4.1-4.2 4.1-4.9 0-1.4 4.7-4.6 8-5.4 2.3-.6 2.2-.7-.7-.8-3.6-.1-4.7-2.3-4.1-7.7.2-2.2.8-2.8 2.3-2.6 9.5 1.4 10.1 1.3 15.4-1.2 3.9-1.8 5.9-2.2 7.2-1.5 2.9 1.5 8.7 1 12.6-1.1l3.8-2h-7.2c-7 0-7.3-.1-9.7-3.3-3.9-5.1-3.7-11.9.5-15.8 3.3-3.1 7.4-3.8 11-1.8 3.7 1.9 4.4.2.9-2-2.8-1.7-4.3-2.1-7.5-1.6-6.1 1-9.5.7-12.3-1.1-2.7-1.8-8.2-2.3-12.3-1.2-2.6.8-2.7.6-3.4-4.5-.3-2.8-1-8.3-1.3-12.1l-.7-6.9-4.5-1.3c-5.6-1.7-8.5-1.7-13-.1-5.4 1.9-6 2.5-6 6.3 0 2.7-.5 3.6-2.3 4.3-3.8 1.5-12 8.5-15.1 12.9-2.7 3.9-3.1 4.1-6.6 3.6-2.5-.4-4.8-.1-7.1 1.1-1.9 1-4.5 2.1-5.9 2.6-2.4.7-2.4.7-.2.8 2.6.1 2.7.3.6 4.3-1.6 3.1-1.6 9.4.1 13.2.7 1.7.5 1.9-2.1 1.3-1.6-.3-5.8-.8-9.4-1.1-5.2-.4-5.7-.4-2.5.4 2.2.4 6.5 1.1 9.5 1.5 3 .3 6.8 1.4 8.5 2.4 1.6 1 4 2.2 5.1 2.5 1.8.6 2.1.3 1.7-1.8-.3-1.5-1.4-2.7-2.8-3-2.7-.7-6.5-6.3-6.5-9.6 0-6.5 4.9-12 10.6-12 2.8 0 4.2 2.4 2.5 4.3-.6.7-1.4 4-1.7 7.3l-.7 5.9 3.6-2.8c1.9-1.5 4-2.7 4.6-2.7.6 0 1.1-1.1 1.1-2.5 0-4.2 4.4-10.2 8.2-11 5.8-1.3 21-1.7 22.1-.6 2.2 2.2-6.2 15.4-12.3 19.5-2.1 1.4-6.2 3.3-9.1 4.2-5.8 1.9-8.9 4.4-8.9 7.2 0 1-.7 2.8-1.6 4-1.2 1.7-1.2 2.2-.2 2.2.9 0 .9.3-.2 1.1-1.2.8-1.2 1 .5.7 1.4-.2 1.9-1.1 2-3.3 0-2.6.3-3 3-3s3 .3 2.8 3c-.2 2.8-.1 2.8.5.5.7-2.2 3.2-3.6 7-3.9.8-.1 1.2 1.4 1.2 4.3 0 4-.3 4.5-3.2 5.7-4.3 1.7-4.3 1.6-2.7 3.5 1.3 1.6 1.2 1.7-.8 1.2-1.9-.5-2.3-.2-2.3 1.8 0 1.5.6 2.4 1.5 2.4 1.9 0 1.9 1.4 0 3-1.1.9-1.3 1.6-.5 2.4 1.5 1.5 1.3 2.3-1.2 4.6-1.9 1.7-2 2.2-.9 3 1.2.7.8 1.9-2.2 6.2-2 2.9-3.9 6.5-4.3 8-.3 1.6-.9 2.8-1.3 2.8-.3 0-1.5 1.6-2.5 3.5-1.2 2.2-3.4 4.1-6.4 5.5l-4.6 2.2-1.5-2.1c-.9-1.1-3.4-2.7-5.6-3.4-2.2-.8-4.1-2.2-4.3-3.1-.2-1 1.6-3.8 4.1-6.5 6.1-6.5 7.3-10.5 4.9-16.2-2.7-6.3-9.9-10.9-22.7-14.6-17.5-5.1-26.9-6.9-62-11.8-24.3-3.4-39.2-6.1-51.9-9.4-4.4-1.2-8.1-2.1-8.2-2.1-.7 0 7-17 10.8-24 32.3-59.2 90.4-97.3 158.7-104 5.7-.5 11.2-1 12.3-1 1.7 0 1.8-.3.8-1.5-1.2-1.5-5.4-1.7-14-.8zm32 86.3c0 1.6-.2 3-.4 3s-.6-1.4-.8-3c-.3-1.7-.1-3 .4-3 .4 0 .8 1.3.8 3zm-1.1 5.9c3.9 3.9 4 17.3.2 24.8-1.7 3.2-1.8 4.6-1.1 8.6.6 2.7 1.9 6.1 2.9 7.6l2 2.8-7.7-.5c-4.2-.2-7.9-.6-8.1-.8-.2-.2.8-1.3 2.3-2.5 1.4-1.1 3.1-3 3.8-4.2.6-1.2-1-.1-3.5 2.4-5.7 5.5-14.2 9.8-15.9 8.1-.9-.9-.7-1.2 1-1.2 2.5 0 9-3.8 12.3-7.2 6-6.3 11.9-18.9 11.9-25.6 0-3.5-3.6-11.1-5.5-11.9-2.4-.8-1.7-2.3 1-2.3 1.4 0 3.4.9 4.4 1.9zm-17.2 6.3c-.3.8-.6.5-.6-.6-.1-1.1.2-1.7.5-1.3.3.3.4 1.2.1 1.9zm-3.9 7.3c-.6.7-4.8-.7-4.8-1.5 0-.4 1-1.2 2.3-1.7 1.8-.9 2.3-.7 2.5.9.2 1.1.2 2.1 0 2.3zm47.5 4.2c.4.3-.3 1.7-1.5 3.1-1.9 2-2.3 3.5-2.3 9.2 0 5.2.4 7.3 1.8 8.8 2.3 2.6 1.5 3-6.9 3.7-7.8.7-9.1 0-13.3-6.8-3.1-5-2.3-11.7 1.9-15.9 2.7-2.6 3.4-2.8 11.3-2.8 4.6 0 8.7.3 9 .7zM65 189c3 1.7 6.3 3 7.3 3 .9 0 1.7.4 1.7 1 0 .5-.8 1.3-1.7 1.9-1.6.8-1.3 1.2 1.9 2.5 2.1.9 4.6 1.7 5.7 1.9 3.2.5 3.7 1.7.8 1.7-4.1 0-3.3 2.7 1.3 4.8l4 1.8-11.5-.4c-13-.5-15.5.3-11.4 3.7 1.3 1.1 3.6 2.3 5.2 2.6 3 .7 3.6 2.2 1 2.7-1.6.3-1.6.5.3 2.4 3 3 13.3 6.2 23.4 7.3 9.1 1.1 22.3 3.3 28 4.9 3 .8 3.2 1 1.5 1.7-6.3 2.2-11.8 3.9-20.5 6-18.1 4.4-24.6 6.8-23.5 8.5 1.9 3.1 15.8 7.9 25.2 8.7 6.1.5 8 .2 12.2-1.6 7-3 8.5-2.6 2.3.6-2.9 1.5-5.2 3-5.2 3.4 0 1.2 9.8 3 17.3 3.3 2.6 0 4.7.2 4.7.3 0 1.4-21.7 13.1-27.2 14.7-2.3.6-2.3.6-.3 2.2 1.3 1 3.3 1.4 5.8 1.1 3.5-.5 5.2.6 2.5 1.6-3.8 1.3 2.2 2.2 16.6 2.3 10.6.1 17.2.6 18.6 1.4 2.8 1.5 7.4.8 13.1-1.9 2.3-1.2 4.4-2.1 4.5-2.1.1 0-2.9 4.6-6.6 10.2-6.7 10.1-7.5 12.4-4.2 11.4 1.5-.5 1.7.8 1.7 13.2.1 11.5.4 14.9 2.4 20.9 1.2 4 2.5 7.3 2.8 7.3.3 0 2.9-.7 5.9-1.6l5.5-1.6 4.1 4.7c3.6 4.1 6.7 5.5 6.1 2.7-.1-.5.6-1.7 1.7-2.7 1.9-1.7 1.8-1.8-1.1-4.9-6.2-6.4-12-15.1-19.6-29.7-2-3.8-4.1-6.9-4.7-6.9-.6 0-.5-.5.2-1.2.9-.9 2-.4 4.7 2.2 1.9 1.9 3.5 3.8 3.5 4.3 0 1.4 6.7 12.4 12.2 19.8 2.6 3.7 4.8 7.1 4.8 7.6 0 1.3 4.9 5.8 5.5 5.1.3-.3-.1-1.1-1-1.8-2.4-2-1.8-2.9 2.4-3.6 5.3-.8 6.5-1.8 5.8-4.5-1.2-4.6-15-17.5-25.7-23.9-3-1.8-6.5-4.2-7.8-5.4l-2.2-2 4.7-1.8c2.7-1 5.3-1.6 5.9-1.4 1.6.6 9.5-2.2 11.7-4.1 2.2-2.1 3.2-1.1 1.6 1.6-1.9 2.9-.4 3.7 3.6 1.8 2-.9 3.8-1.7 4.1-1.7.5 0-.1 4.4-1.3 8.4-.5 1.7-.1 1.8 2.7 1.3 1.7-.4 4.5-1.6 6.1-2.8 1.6-1.1 3.4-1.7 3.9-1.4 1.1.7 11-4.4 14.3-7.3 2.2-1.9 2.1-1.5-.3 3.5-1 2.2-3.1 4.8-4.6 5.8-2.4 1.5-2.5 1.8-1.1 3.3 1.4 1.4 1.3 1.7-.9 3.5-1.8 1.4-2.2 2.3-1.5 3 .8.8.6 1.6-.6 2.9-1.1 1.2-1.3 2.1-.6 3 .6.8.7 2.2.2 3.3-1.3 3.4-1.1 5.8.6 5.1 1.8-.6 1.9.7.4 3.6-.9 1.6-.8 2.3.2 2.9 1.2.8 1.2 1 0 1.8-1 .7-1 1-.1 1.6.8.5 1.9-.1 3-1.4 1.9-2.6 5.7-2.6 7.3 0 .8 1.3.6 2.1-.7 3.4-1.3 1.4-1.4 2-.4 3.2 1 1.3 1.3 1.3 2.4-.2.7-.9 1.5-1.5 1.9-1.3.4.2 1.2-.8 1.9-2.1.8-1.5 1.6-2 2-1.3.4.7.2 2-.3 3-.6 1.1-.8 2.2-.5 2.5.3.3-.6 2.1-2 4-3 3.9-3.2 4.7-1.1 4.7 1.9 0 1.9.9 0 3.4-.8 1-2 1.6-2.7 1.4-.7-.3-2.2-.2-3.3.3-1.5.6-.9.8 2.3.8 4.6.1 5.2.9 2.4 3.4-1.5 1.3-2.5 1.5-5.2.7-4.1-1.2-6.6.6-7.2 5.1-.3 2.2-.1 2.9 1.2 2.9.9 0 2.4.6 3.3 1.2 1.5 1.2 1.3 1.7-1.3 5.6-1.7 2.3-3 4.5-3 4.7 0 .9 5.2.5 7.3-.6 1.2-.6 3.4-2.3 4.9-3.6 3.7-3.5 6.2-2.7 6.6 2l.3 3.8-30.8-.1h-32.5c-1 0-3.3 1.4-5.2 3.1-3.3 2.9-3.5 3.2-2.9 8.1.7 5.8.7 5.8-8.7 8.9-4.4 1.5-8.3 3.8-12.2 7.2l-5.7 4.9-3.3-2.3c-12.3-8.5-32.5-28-41.9-40.4C54.6 325.3 40.7 266.2 52 210.2c2.1-10.6 6-24.2 6.9-24.2.3.1 3.1 1.4 6.1 3zm377.3 12.6c4.2 16.4 5.1 25.3 5.1 47.9-.1 18-.5 24.1-2.2 33.5-7.7 42.1-26.2 77.7-55.5 107.2-8.4 8.5-25.5 22.8-27.2 22.8-.4 0-3.2-2-6.4-4.5-3.3-2.6-8.4-5.4-12.2-6.6-3.5-1.2-6.9-2.6-7.5-3-.6-.5-.9-3.1-.6-6.2.4-5.2.3-5.6-3.1-8.1l-3.5-2.7-30.5.1c-20.9 0-30.8-.3-31.2-1-.4-.6-.4-2.2-.1-3.6.5-1.8 1.3-2.4 3.4-2.4 1.5 0 3.3.5 3.8 1 .6.6 2.5 1.5 4.3 2l3.3.9-.6-3.4c-.6-3.1-.4-3.5 1.8-4.1 2.1-.5 2.4-.9 1.6-2.4-.5-.9-.7-2-.4-2.3.3-.3.3-1.5-.1-2.6-.5-1.8-1.4-2.1-6.1-2.1-3 0-5.4-.2-5.4-.4s-.3-1.1-.6-1.9c-.4-1.2 0-1.4 1.5-1 1.2.3 2.7-.2 3.6-1.1.9-.9 1.3-1.7.8-1.7-.4-.1-1.2-.2-1.8-.4-.5-.1-1.5-.3-2-.3-.6-.1-1.7-3-2.4-6.4-.7-3.5-1.7-6.6-2.3-6.9-.6-.4-1-2-1-3.5 0-1.6-.5-3.4-1-4.1-.5-.7-.8-2-.5-3 .4-1.7.4-1.7 1.2 0 .9 2.3 5.2 6.7 6.4 6.7.5 0 1.1.7 1.5 1.5 1.1 3.1 3.2 1.6 2.8-2-.4-3.3-.3-3.5 2.6-3.5 2.1 0 3.2.6 3.7 1.9.6 2.1 2.8 2.2 4.7.3.9-.9.9-1.2 0-1.2-.7 0-1.2-.5-1.2-1 0-.6.7-1 1.5-1s1.5-.4 1.5-.9-.7-1.1-1.5-1.5c-1.8-.6-2-3.3-.4-3.8.8-.3.5-1.1-.6-2.2-1.8-1.7-1.8-1.9-.1-2.8 1.6-.9 1.6-1.2-.5-3.4-1.7-1.9-2-2.7-1.1-3.6.9-.9.7-1.8-1.1-3.6-1.5-1.7-1.8-2.6-.9-2.9 1.8-.7 1.5-2.7-.8-4.8-1.5-1.4-1.7-2-.8-2.6.9-.6.7-1.6-1.1-3.9-3.2-4.5-1.4-6.1 3.1-2.7 4.2 3.2 11.2 6.7 13.3 6.7.9 0 2.5-.5 3.6-1.1 2-1 2-1.1-.6-4.5-3.1-4-2.9-4.1 2.5-1.3 2.9 1.5 5.1 2 7.6 1.6 2.3-.4 4.9.1 8.2 1.5 6 2.7 16.1 2.9 21.5.3 4.4-2.1 4.6-3.2 1-4.6-3.2-1.2-11.2-7-11.3-8.2 0-.4 4.2-.7 9.3-.7 9.3 0 13.7-.6 13.7-1.9 0-.4-2.1-1.7-4.7-2.8l-4.8-2.1 8.7-.1c8.8-.1 13-1.2 21.6-5.5 5.8-2.9 5.5-4.6-.8-4.6-5.1 0-6.7-1.3-2.9-2.3 3-.8 1.5-2.4-2.8-3-11.6-1.6-9.9-2.4 4.9-2.4 17.2 0 28.7-.9 35.1-2.9 8.8-2.7 22.1-8 22.4-9 .2-.5-4.5-1.5-10.4-2.1-6-.7-14.4-2.2-18.8-3.4-4.4-1.1-10.7-2.7-14-3.5-3.3-.8-6.8-1.6-7.9-1.9-3.6-.8-2.6-1.2 4.6-1.8 9.2-.8 15.7-3 28.9-9.7 7.6-3.9 16-10 15.6-11.4-.2-.5-4-.8-8.5-.7-4.5.1-8.2 0-8.2-.3s1.9-1.4 4.3-2.4c2.4-1.1 6-3.4 8-5.2 2.9-2.5 3.5-3.5 2.6-4.6-.9-1.1-.5-1.6 1.7-2.4 1.6-.6 4.3-1.7 5.9-2.5 1.7-.8 3.5-1.3 4-1.2.6.2 1.8 3.5 2.8 7.3zM258 199.5c0 .8-.9 1.5-2 1.5-2.2 0-2.7-1.5-.7-2.3 2.1-.9 2.7-.7 2.7.8zm-98.3.1c-.3.3-1.2.4-1.9.1-.8-.3-.5-.6.6-.6 1.1-.1 1.7.2 1.3.5zm7 1c-.3.3-1.2.4-1.9.1-.8-.3-.5-.6.6-.6 1.1-.1 1.7.2 1.3.5zm147 9c-.3.3-1.2.4-1.9.1-.8-.3-.5-.6.6-.6 1.1-.1 1.7.2 1.3.5zm-110 13.1c-.3 1-.5.2-.5-1.7s.2-2.7.5-1.8c.2 1 .2 2.6 0 3.5zm50 1c-.3 1-.5.4-.5-1.2 0-1.7.2-2.4.5-1.8.2.7.2 2.1 0 3zM256 235c0 .6-2.5.9-5.7.8l-5.8-.1 5.5-.7c3-.4 5.6-.7 5.8-.8.1-.1.2.2.2.8zm10.1 7.2c12.2 7.8 18.7 22.5 15.9 36.2-3 14.6-11.9 23.9-26.2 27.7-5.4 1.5-11.1.5-18.3-3.2-14.6-7.5-21.6-24.9-16.5-41 2.6-8.3 8-15.5 14.8-19.7 6.4-3.9 7.3-4.1 16.7-3.8 7.2.2 8.5.6 13.6 3.8zM183.2 315c7 5.3 16.8 15.4 16.8 17.3 0 .7-1.5 1.3-3.3 1.3-1.7.1-2.4-.1-1.4-.3.9-.2 1.7-.8 1.7-1.2 0-1.1-18.7-19.1-19.8-19.1-.6 0-1.2-.7-1.6-1.5-.9-2.4.5-1.8 7.6 3.5zm82.8 11.6c0 .8-.4 1.2-1 .9-.5-.3-1-1-1-1.6 0-.5.5-.9 1-.9.6 0 1 .7 1 1.6zm5.7 3.6c-.3.8-.6.5-.6-.6-.1-1.1.2-1.7.5-1.3.3.3.4 1.2.1 1.9zM243 380c0 1.3-.7 2-2 2-2.3 0-2.6-1-.8-2.8 1.8-1.8 2.8-1.5 2.8.8zm19 1.1c0 .5-1.2.9-2.7.9-2.7-.1-2.7-.1-.9-1.5 1.9-1.4 3.6-1.2 3.6.6zm-10.7.6c-1.3.2-3.5.2-5 0-1.6-.2-.5-.4 2.2-.4 2.8 0 4 .2 2.8.4zm54.4 2.2c23.6.6 24.2.7 26.7 3 2.3 2.2 2.4 2.8 2 9.5-.3 4.1-.2 6.6.3 5.9 1.2-1.7 12.7 1.8 17.3 5.2 9.3 6.8 17.7 17.1 12.3 15-1-.3-4-.9-6.6-1.2l-4.8-.6 4.6 6.9c5.5 8.1 8.9 14.4 7.8 14.4-.5 0-2.4-1.1-4.4-2.4-4.6-3.1-14.6-6.4-23.3-7.6-3.7-.6-7.5-1.4-8.3-1.9-1.7-.9-1.4-1.2 4.1-4.1 4-2 4.9-5.8 3.4-15-.6-4.1-1.3-6.9-1.6-6.2-.2.6.1 4.2.7 7.9.6 3.6.8 7 .5 7.5-.3.4-1.6 0-3-.9-3.2-2.1-32.2-3.2-84.4-3.2-52.8 0-82.2 1.2-85.6 3.3l-2.6 1.8.6-4.9c.3-2.6.9-10.1 1.2-16.5.9-15.9-.4-15.1 26.9-15.8 30.8-.8 88.5-.9 116.2-.1zM162 402.5c0 .8-.5 4.5-1.2 8.2-.6 3.8-.8 8.5-.4 10.6.6 3.2 1.3 4 4.7 5.4 5 1.9 4.6 3.6-1.2 4.6-12 2.1-19.4 4.1-23.7 6.4-5.3 2.8-7.6 4.7-5.1 4.1 1.8-.3 8.9 5.5 8.9 7.3 0 1.8-3 2.1-5.5.5-1.4-.9-2.5-2.5-2.5-3.6 0-1-1-2.6-2.1-3.4l-2.2-1.5 4.1-6.8c2.3-3.7 5.1-8.3 6.4-10.2l2.2-3.4-4.9.6c-2.8.3-5.8.9-6.7 1.2-2.9 1.1-2.1-.7 2.6-6.1 5.6-6.4 11-10.1 18.9-13 7.7-2.7 7.7-2.7 7.7-.9zM308.6 419c8.8.1 16.5.4 17.1.8.6.4 1.3 3.5 1.4 6.9l.4 6.2-9.5 3.6c-21 7.7-39.9 11.4-63 12.2-24.4.8-45.8-2.1-68.2-9.3-16.2-5.2-18.2-6.2-16.7-8 .7-.9 1-3 .6-5.9-.5-3.7-.3-4.6 1.2-5.4.9-.6 8.9-1 17.6-1 8.7-.1 15.9-.2 16.1-.3.2-.3 42.1-.1 103 .2zM169 422c0 1.1 0 2.3.1 2.7.1 1.4-2.6 1.4-4.6-.1-1.6-1.2-1.7-1.6-.6-3 1.9-2.3 5.1-2.1 5.1.4zm164.6-.5c1.9 1.5 1.9 1.5 0 3-3.3 2.5-5.6 1.9-5.6-1.5s2.3-4 5.6-1.5zm31.7 2.5c.4 0 .7.4.7 1 0 .9-5.9 4.5-6.5 3.8-.8-.9-2.5-4.8-2.5-5.6 0-.6 1.4-.7 3.8-.1 2 .5 4 .9 4.5.9z"/><path d="M195 349.6c0 .9-.9 2.5-2 3.4-1.2 1.1-1.8 2.4-1.4 3.4.9 2.4 2.2 1.9 4-1.7.9-1.7 2-3.4 2.5-3.7.5-.3-.1-1.1-1.1-1.8-1.7-1-2-1-2 .4zM207.5 351c.3.5.8 1 1.1 1 .2 0 .4-.5.4-1 0-.6-.5-1-1.1-1-.5 0-.7.4-.4 1zM216 355c0 .5.5 1 1.1 1 .5 0 .7-.5.4-1-.3-.6-.8-1-1.1-1-.2 0-.4.4-.4 1zM205.7 356.3c-.3.9-1.8 2.2-3.3 2.7-3 1.2-2.4 2.4 2.3 5.2l2.8 1.6-.3-4.1c-.5-6.9-.7-7.4-1.5-5.4zM336 303.2c-20.9 14.9-28.7 21.7-31.9 27.7-1.6 2.9.1 5.1 3.8 5.1 1.5 0 3.6.6 4.6 1.4 1.8 1.3 1.8 1.5-1.3 3.3-1.8 1.1-2.9 2.3-2.6 2.6.8.8 7.1-4 7.8-6 .8-2-1-3.3-4.9-3.3-1.6 0-3.9-.8-5-1.6-1.9-1.5-1.7-1.8 6.2-9.4 4.6-4.3 12-10.4 16.5-13.4 4.6-3.1 9.3-6.3 10.5-7.2 1.2-.9 2.6-1.3 3.1-1 2 1.2 2.4 15 .7 24.2-2.3 13-3 14.4-7.1 14.4-1.9 0-3.4-.5-3.4-1 0-.6-1.2-1-2.6-1-1.7 0-4.7 1.9-8.9 5.5-3.4 3-6.7 5.5-7.3 5.5-.5 0-1 1.5-.9 3.4l.1 3.4 3.3-2.5c1.9-1.4 5.3-4.8 7.7-7.6l4.3-5 5.4 1.6c3.1 1 5.7 1.3 6.3.7 3.2-3.2 6.2-24.5 5-35.1-1.1-8.9-2.5-9.6-9.4-4.7zM296 334.9c0 .6.4 1.3 1 1.6.6.3.7-.1.4-.9-.7-1.8-1.4-2.1-1.4-.7zM294.7 343.7c-.4.3-.7 1.1-.7 1.7 0 .6.5.5 1.2-.2.6-.6.9-1.4.7-1.7-.3-.3-.9-.2-1.2.2zM306.1 353.6c0 1.1.3 1.4.6.6.3-.7.2-1.6-.1-1.9-.3-.4-.6.2-.5 1.3zM281.8 356.7c.7.3 1.6.2 1.9-.1.4-.3-.2-.6-1.3-.5-1.1 0-1.4.3-.6.6zM293.9 358.3c0 .1-.2 1.3-.3 2.7-.1 1.4-.6 3.5-1 4.7-.7 2-.5 2.1 2.3 1 1.7-.6 2.8-1.3 2.6-1.6-.3-.2-.1-.9.3-1.5.5-.6-.1-2-1.5-3.3-1.3-1.2-2.3-2.1-2.4-2zM242 245.8c-5.3 2.3-10.2 7.2-13 12.8-3.1 6.2-3.8 9-2 7.9.5-.3 1.2-2.1 1.6-4 .3-1.9 1-3.5 1.5-3.5s.9-.6.9-1.3c0-1.9 6.8-8.1 11.5-10.6 3.6-1.9 3.2-2.9-.5-1.3zM259.1 248.7c.1 1.7.3 2.1.6 1 .2-.9.8-1.7 1.2-1.7 1 0 6.2 3.9 7.9 6 1.1 1.4 5.2 9.4 5.2 10.2 0 .2-1.7.3-3.7.1-3.3-.2-3.4-.1-1.3.6 6.7 2.4 7.5.6 3.4-7.4-2.3-4.6-9.8-11.5-12.4-11.5-.5 0-.9 1.2-.9 2.7zM244 248.4c0 .8.5 1.8 1 2.1.6.3 1-.1 1-.9s-.4-1.8-1-2.1c-.5-.3-1 .1-1 .9zM246.3 256c0 2.5.2 3.5.4 2.2.2-1.2.2-3.2 0-4.5-.2-1.2-.4-.2-.4 2.3zM260.3 258c.4 1.8.7 3.9.7 4.6 0 .8 1 1.4 2.3 1.3 1.6-.1 1.8-.2.5-.6-1.3-.3-1.8-1.4-1.8-3.8 0-1.9-.5-3.7-1.2-4.1-.8-.5-.9.2-.5 2.6zM239.3 263.7c1.5.2 3.9.2 5.5 0 1.5-.2.2-.4-2.8-.4s-4.3.2-2.7.4zM229 265c0 1.2.8 1.2 3.5 0 1.8-.8 1.7-.9-.7-.9-1.6-.1-2.8.3-2.8.9zM247 281.7c0 6.8.5 6.7 1.3-.5.4-3 .2-5.2-.3-5.2-.6 0-1 2.5-1 5.7zM235.5 278c-1.7.7-1.5.9 1.2.9 1.7.1 3.5-.4 3.8-.9.7-1.2-2.2-1.2-5 0zM262 278c0 .5 1.4 1 3.2 1 3.6 0 3.5-.4-.4-1.4-1.7-.4-2.8-.2-2.8.4zM226 279.8c0 .6.4 1.3.9 1.6.5.3 1.2 1.8 1.5 3.2 1 3.8 8.3 11.2 13.5 13.5 2.4 1 4.6 1.7 4.9 1.4.3-.2-1.5-1.3-4-2.4-6.5-2.8-13.8-10.4-13.8-14.4 0-.8-.7-2-1.5-2.7-.9-.8-1.5-.9-1.5-.2zM229.8 279.7c.7.3 1.6.2 1.9-.1.4-.3-.2-.6-1.3-.5-1.1 0-1.4.3-.6.6zM272.3 279.7c1.3.3 1.6 1 1.1 2.6-.4 1.2-1.1 2.3-1.5 2.5-.5.2-.9 1-.9 1.8 0 1.3-3.6 5.1-10 10.4l-2.5 2.1 2.5-1.3c5.6-2.9 10.6-8.7 13.8-16.1 1.1-2.6 1-2.7-1.6-2.6-1.7.1-2.1.3-.9.6zM261.2 286.1c-.1 1.5-.5 4.2-.8 6-.5 2.6-.4 3.1.5 2.3.8-.7 1.1-3 .8-6-.2-2.7-.4-3.7-.5-2.3zM246.3 293.5c0 2.2.2 3 .4 1.7.2-1.2.2-3 0-4-.3-.9-.5.1-.4 2.3zM215 397.5V409h8v-23h-8v11.5zM230 397.5V409h9v-4.6c0-3.8.3-4.5 1.7-4.2 1 .2 3.1 2.2 4.8 4.5 2.8 3.9 3.3 4.2 7.8 4.2l4.8.1-2.7-3.6c-1.5-1.9-3.6-4.1-4.6-4.9-1.9-1.3-1.9-1.4.8-2.7 3.4-1.6 4.6-4.8 3.1-7.9-1.6-3-4.2-3.7-15.4-3.8l-9.3-.1v11.5zm17-4.5c0 1.7-.7 2-4 2s-4-.3-4-2 .7-2 4-2 4 .3 4 2zM260 397.5V409h7.9l.3-6.6.3-6.6 5.3 6.6c5 6.1 5.7 6.6 9.3 6.6h3.9v-23h-8v13.2l-5.6-6.6c-5.1-6-6-6.6-9.5-6.6H260v11.5zM191 412c0 .6 4 1 10 1s10-.4 10-1-4-1-10-1-10 .4-10 1zM290 412c0 .6 4 1 10 1s10-.4 10-1-4-1-10-1-10 .4-10 1zM248.5 48c-.3.5.1 1 .9 1 .9 0 1.6-.5 1.6-1 0-.6-.4-1-.9-1-.6 0-1.3.4-1.6 1zM254 47.9c0 .5.7 1.1 1.4 1.4 1 .4 1.3.1.9-.9-.6-1.5-2.3-1.9-2.3-.5zM230.2 71.7c-2.4.9-3.4 4.1-2 6.5.7 1.3 1.3 3 1.4 3.8.1.8.2 2.6.3 3.9.1 1.7.4 2.1 1.4 1.3.8-.6 2.1-.6 3.7 0l2.5 1-3.5 2.9c-1.9 1.7-2.8 2.9-2 2.9 1 0 1.1.3.4.8-1.3.8-.2 4.6 1.5 5.7.6.3 2.1.3 3.2 0 1.8-.6 2-1.2 1.5-4.6-.5-3.1-.3-4.1.9-4.5 2.2-.9 2.9.2 3 4.4 0 3.3.3 3.7 2.8 4 1.6.2 3.5-.2 4.3-.9 1.3-1.1 1.1-1.5-1.8-2.8-2.6-1.3-3.4-2.3-3.6-4.9-.2-2.2.2-3.4 1.2-3.8.9-.3 1.4-1 1.1-1.4-.3-.4.2-1.3 1-2 2.8-2.3 1.8-4-2.5-4-3.1 0-4.7-.7-7-2.9l-3.1-2.9 6.6.5c5.6.5 6.5.3 6.5-1.1 0-1.2-1-1.6-4.7-1.7-2.7 0-6.4-.2-8.3-.3-1.9-.2-4.1-.2-4.8.1zM264.4 72.1c-.4.7-2 .9-3.9.6-2.8-.5-3.4-.2-3.9 1.6-1.1 4-.6 8.5 1 10.1.8.9 1.2 1.6.8 1.6-.4 0 0 .8.9 1.8 2.6 2.8 1.1 8.2-2.3 8.2-2.9 0-3.3 1.7-.8 3.4 3.2 2.3 6.3 0 6.3-4.5 0-2.3.5-3.5 1.6-3.7 2.1-.4 3.3 2.6 1.8 4.4-1.6 2 .7 5.6 3.4 5.2 2.2-.3 5.4-5.1 3.7-5.6-.5-.2-.6-1-.3-1.8s0-1.4-.7-1.4c-1.4 0-4-2.5-4-3.8 0-1.1 4.1-2.4 4.9-1.6.3.3-.1 1-.9 1.5-1.2.9-1.2 1 .3.5 1-.3 2.1-.6 2.3-.6.2 0 .4-.9.4-2.1 0-1.1.5-1.7 1-1.4 1.4.8 1.3-.8-.1-2.2-.9-.9-.8-1.8.5-3.8 2.3-3.5 1.6-4.9-3.2-6.3-4.9-1.5-7.9-1.5-8.8-.1zm9.1 2.9c.4.6-2.1 1-6.7.9-5 0-6.7-.3-5.3-.9 2.8-1.2 11.3-1.2 12 0zM285 76.5c-.6 1.5-1 3.7-1 5 0 1.4-.7 2.6-1.9 3-1.6.5-3.8 3.5-2.9 3.9 2.5 1 4.4 2.7 4.8 4.6.6 2.4 3 4.1 3 2.1 0-.6 1.2-1.7 2.8-2.5 4.6-2.4 7.2-5.5 7.2-8.5 0-2.3-1-3.5-5.5-6.5L286 74l-1 2.5zm6 3c0 1-3.3 3.5-4.5 3.5-1.5 0-.9-3 .8-4.2.9-.6 3.7 0 3.7.7zM212.9 78.3c-6 4.5-6.4 8.3-1.5 12 1.9 1.5 3.9 2.7 4.5 2.7.5 0 1.4.8 2 1.7 1.1 2 2.7 1 3.3-2.1.2-1.5 1.7-2.8 4.6-4.3.8-.3-2.4-4.3-3.5-4.3-.7 0-1.3-1-1.3-2.3-.1-2.1-.1-2.1-1.5-.4-1.4 2-5.6 2-6.2.1-.4-1.1 4.2-3 6-2.5 1.3.2.4-3.2-.9-3.6-.6-.2-3.1 1.1-5.5 3zM222.4 94.1c-.3.5 0 .9.5.9.6 0 1.1 1.3 1.1 2.9 0 3.3 2.2 4.6 5.1 3 1.9-1 1.9-1.1-.3-3.9-2.5-3-5.4-4.4-6.4-2.9zM276.3 96.9c-2 2.6-2.1 3-.7 4.2 2 1.6 4.9 0 4.9-2.7 0-1.1.4-2.5.8-3.2 1.7-2.6-2.8-1-5 1.7zM218.2 101.6c-1.1 1.2-1 1.5.4 2.1 1.5.5 3.3-1.1 3.4-3 0-1.2-2.4-.7-3.8.9zM283.2 101.6c.1.9.9 1.9 1.6 2.2.9.3 1.3-.2 1-1.4-.1-.9-.9-1.9-1.6-2.2-.9-.3-1.3.2-1 1.4zM228.5 116c-.7 1.2.2 1.2 3 0 1.9-.8 1.9-.9-.2-.9-1.2-.1-2.5.3-2.8.9zM274.6 116.4c1.8.8 3.5 1.9 3.8 2.5.9 1.3 2.6 1.5 2.6.2 0-1.2-5.7-4.1-7.9-4.1-.9.1-.2.7 1.5 1.4zM224.3 117.7c-1.7.6-1.6 2.3.1 2.3.8 0 1.6-.7 2-1.5.6-1.5.1-1.7-2.1-.8zM273.8 120.7c.7.3 1.6.2 1.9-.1.4-.3-.2-.6-1.3-.5-1.1 0-1.4.3-.6.6zM306.3 158.7c.9.2 2.5.2 3.5 0 .9-.3.1-.5-1.8-.5-1.9 0-2.7.2-1.7.5zM193.3 159.7c.9.2 2.5.2 3.5 0 .9-.3.1-.5-1.8-.5-1.9 0-2.7.2-1.7.5zM315.3 159.7c.9.2 2.5.2 3.5 0 .9-.3.1-.5-1.8-.5-1.9 0-2.7.2-1.7.5zM188.8 160.7c.7.3 1.6.2 1.9-.1.4-.3-.2-.6-1.3-.5-1.1 0-1.4.3-.6.6zM324 161.1c0 .5 1.1.9 2.3.9 5.5 0 7.7 7.8 3.4 11.8-1.3 1.2-3.4 2.2-4.8 2.1-4.4-.2-13 1.4-12.2 2.2.4.4 2.6.4 4.8-.1 2.2-.5 5.4-1 7.2-1 4.8 0 8.5-3.7 8.5-8.4 0-2.5-.7-4.5-1.9-5.8-2.1-2-7.3-3.2-7.3-1.7zM180.9 163.7c-1.3 1.6-1.2 1.7.4.4.9-.7 1.7-1.5 1.7-1.7 0-.8-.8-.3-2.1 1.3zM181.2 174c.7 1.1 1.7 2 2.2 2 .5 0 .1-.9-.9-2s-2-2-2.2-2c-.2 0 .2.9.9 2zM220.6 179.5c-.9 2.6-.7 3.2.5 1.2.6-1 .9-2.1.6-2.3-.2-.3-.7.2-1.1 1.1zM307.8 178.7c.6.2 1.8.2 2.5 0 .6-.3.1-.5-1.3-.5-1.4 0-1.9.2-1.2.5zM216.1 196.6c0 1.1.3 1.4.6.6.3-.7.2-1.6-.1-1.9-.3-.4-.6.2-.5 1.3zM231.1 196.6c0 1.1.3 1.4.6.6.3-.7.2-1.6-.1-1.9-.3-.4-.6.2-.5 1.3zM278.1 201.6c0 1.1.3 1.4.6.6.3-.7.2-1.6-.1-1.9-.3-.4-.6.2-.5 1.3zM275.1 205.8c-.1 2.5 1.9 2.6 2.7.2.3-.7 0-1-.6-.6-.6.3-1.3 0-1.5-.6-.3-.7-.6-.3-.6 1zM215.1 206.6c0 1.1.3 1.4.6.6.3-.7.2-1.6-.1-1.9-.3-.4-.6.2-.5 1.3zM229 208.1c0 .5.5.7 1 .4.6-.3 1-.8 1-1.1 0-.2-.4-.4-1-.4-.5 0-1 .5-1 1.1zM227.7 213.7c-.4.3-.7 1.1-.7 1.7 0 .6.5.5 1.2-.2.6-.6.9-1.4.7-1.7-.3-.3-.9-.2-1.2.2zM217.5 225.1c-.4.6-.5 1.2-.2 1.5.2.3.7-.2 1-1.1.7-1.7.1-2-.8-.4zM478 239.5c-1.9 1.4-3.8 3.2-4.3 4.1-.8 1.3-1.2 1.1-2.8-1.5-1.3-2.1-2.7-3.1-4.3-3.1-5.3 0-6.9 4.4-6.4 17.5l.3 8 10.8.3 10.7.3V256h-4.5c-3.3 0-4.5-.4-4.5-1.5 0-.8 2-2.8 4.5-4.5 4.3-3 4.5-3.3 4.5-8 0-2.8-.1-5-.2-5-.2.1-1.9 1.2-3.8 2.5zm-9.2 12.8c.3 3.4.1 3.7-2.2 3.7-2.1 0-2.6-.5-2.6-2.4 0-6.6 4.3-7.7 4.8-1.3zM33 245.5v4.5H16v9.3l8.5-.6 8.5-.6v2.9c0 4.4 1 6 3.8 6h2.5l-.6-8.3c-.4-4.5-.7-10.3-.7-13 0-4.3-.2-4.7-2.5-4.7s-2.5.4-2.5 4.5zM459.6 269.9c-.3 1.4-1 6.4-1.6 11.1-.6 4.7-1.2 9.8-1.4 11.5-.3 1.6-.7 3.7-1.1 4.7-.5 1.2.6 2.3 4.4 4.5 2.8 1.5 5.1 3.1 5.1 3.5 0 .5-2.7.8-5.9.8-3.3 0-6.2.3-6.5.8-.2.4-.7 2.3-1.1 4.2-.6 3.4-.4 3.7 4.2 7l4.8 3.5-6.2.3c-6.1.3-6.3.4-7.1 3.5-1.1 4.1 0 4.5 12.5 4.6l9.2.1 1-3.8c.6-2 1.1-4 1.1-4.3 0-.4-2.6-2.6-5.7-5l-5.8-4.4 7.4-.5 7.4-.5 1.2-4 1.1-4-9.5-6.2c-5.3-3.5-9.1-6.3-8.6-6.3.9 0 10.1 1.4 17.1 2.5l3.1.5 1.2-10.2c.7-5.7 1.5-11 1.7-11.9.3-1.1-.3-1.8-2-2.1-2.2-.4-2.5-.1-3.1 4.1-1.4 10.6-1.5 10.8-3.9 10.4-2.1-.4-2.2-.8-1.5-5.6 1.2-8.1 1.1-8.7-1.1-8.7-1.4 0-2.1.9-2.5 3.7-1.5 8.9-1.6 9.3-3.6 9.3-1.5 0-1.9-.5-1.5-1.8.3-.9.8-4.2 1.1-7.3.6-5.1.5-5.7-1.3-6.1-1.6-.5-2.2 0-2.6 2.1zM25.5 271.7c-4.3.8-8 1.5-8.1 1.6-.1.1.1 1.9.4 4l.4 3.9 4.6-.4 4.6-.3.9 4.3c.5 2.4.6 4.6.4 4.9-.3.2-2.3.7-4.5 1-4 .5-4 .6-3.5 4.2.3 2 .8 3.9 1.2 4.3.3.4 5.2 0 10.9-.9 11-1.8 11.2-2 9.6-8-.6-2-1.1-2.2-4.4-1.7-3.6.6-3.7.5-4.4-2.6-1.1-5.7-.8-7 1.7-7 3.9 0 5-1.4 4.3-5.4-.8-4.2-1.3-4.3-14.1-1.9zM32.4 303.1l-9.1 2.9 1.1 4c.9 3.6 1.3 4 3.3 3.6 1.3-.4 3.4-.9 4.8-1.2 3.5-.9 3.3 1.8-.5 6.6-3.4 4.3-3.4 4.1-1.9 9.4l1.1 3.8 2.3-2.2c1.3-1.2 2.9-3.5 3.6-5.1l1.2-3 2.2 2.1c1.2 1.1 3 2 4.2 2 2.7 0 5.3-3.1 5.2-6.1-.1-4.5-5.4-19.4-6.9-19.6-.8-.1-5.6 1.2-10.6 2.8zm11.2 9.3c1.1 6.2-1.8 7.7-4.2 2.1-.7-1.9-1.4-3.6-1.4-3.9 0-.4 2.1-1.1 4.2-1.5.4 0 1 1.4 1.4 3.3zM40.8 329.7c-5.2 3.2-6.3 10.4-2.7 17.6 4.6 9.1 9.4 11.3 17.3 8.1 4.2-1.8 4.5-2.2 5.1-6.5 1.3-9.1-6.6-20.9-13.8-20.9-1.8 0-4.4.8-5.9 1.7zm11.6 7.9c.9.8 1.9 2.7 2.2 4.1.6 2.1.1 3.1-2 5-4.9 4.2-10.6 1.9-10.6-4.2 0-5.3 6.8-8.5 10.4-4.9zM445.9 333.3c-7.6 5.1-10.9 17.8-6 23.1 6.2 6.6 14.1 5.1 19.2-3.8 5.1-8.9 3.6-17.2-3.7-20.2-4.5-1.9-5.5-1.8-9.5.9zm8.8 9.3c1.9 2.1 2.1 2.8 1.1 5.5-1.3 3.6-4.2 5-8.1 3.7-5.1-1.8-6.1-6.5-2.2-10.4 3-2.9 5.8-2.6 9.2 1.2zM59.4 357.5c-8.8 5.7-10.1 9.3-6.2 17.2 2.9 5.8 8 10.3 11.7 10.3 1.6 0 5.6-1.8 9.4-4.3l6.7-4.3-2.6-3.7-2.5-3.7-5.9 4c-6.5 4.4-8.1 4.8-10.4 2.4-3.2-3.2-2-6.1 4.4-10.4 3.3-2.2 6-4.3 6-4.6 0-1-4.1-6.4-4.8-6.3-.4 0-3 1.5-5.8 3.4zM434 357.8c-2.6.8-5.8 4.3-10.2 10.9-2.5 3.9-3.7 6.7-3.1 7.1.5.4 4.7 3.2 9.3 6.2 8 5.2 8.3 5.3 9.7 3.5 3.5-4.8 3.5-5.3 0-7.7l-3.4-2.2 2.9-5.5c1.8-3.7 2.6-6.4 2.2-7.9-.7-2.6-5.1-5.2-7.4-4.4zm.7 8.8c.3.8.1 2.6-.6 4-.9 2.1-1.4 2.3-3.1 1.4-2.4-1.3-2.5-2.8-.3-5.2 2-2.2 3.2-2.3 4-.2zM410.8 386.2l-7.6 9.1 8 6.9c4.4 3.8 8.4 6.8 8.8 6.6 1.2-.5 15-16.8 15-17.8 0-.4-.8-1.1-1.7-1.5-1.4-.5-3.1.8-6.8 5-4 4.5-5.3 5.3-6.3 4.3-1.8-1.8-1.6-2.6 2.8-7.6 3.7-4.2 3.9-4.7 2.5-6.1-1.5-1.5-1.8-1.4-3.5.6-7 8.6-7.1 8.7-8.5 7.2-1.2-1.2-.7-2.2 3.5-7 4.7-5.3 4.8-5.7 3.2-7.2-1.7-1.5-2.3-1-9.4 7.5zM75.4 383.9c-3.8 2.3-5.8 7-5 11.5.8 4.3 7.6 12 12.9 14.7l4 2.1 3.3-3.4 3.4-3.3-4.4-5c-3.8-4.4-4.5-4.8-6-3.6-1.5 1.3-1.5 1.6.4 3.6 2.6 2.8 1 4.4-2.5 2.5-5.5-2.9-5.7-9.6-.3-12.8 3.4-2 7.3-.5 8.9 3.5 1.9 4.7 2.4 5.6 4.7 7.1 1.9 1.3 2.2 1.2 2.8-.2 1.1-2.8-.5-6.6-4.8-11.2-6.9-7.5-11.6-9-17.4-5.5zM390 407.1l-8.1 7.1 6 6.7c8.8 9.9 8.7 9.8 11.9 7 1.5-1.3 2.9-2.5 3.1-2.7.3-.1-1-1.8-2.8-3.6-2.9-3-3.1-3.5-1.6-4.3 1-.6 3.5-.6 6.6 0 4.5.9 5.1.8 8.5-1.8 4.2-3.2 3.5-4.1-3.6-5.1-4.5-.6-4.6-.6-4.2-4 .5-4.2-1.2-6.4-4.9-6.4-2.2 0-4.9 1.8-10.9 7.1zm8.7 1.5c.8 2.2-3.6 6.7-5.4 5.3-1.9-1.6-1.6-2.8 1-5 2.7-2.3 3.6-2.3 4.4-.3zM96.2 409.3l-7.1 8.4 2.8 2.7c1.5 1.4 3 2.6 3.4 2.6.4 0 2-1.4 3.5-3.1l2.8-3.2 3.7 3.3 3.7 3.2-2.7 3.5-2.7 3.5 2.7 2.4c1.6 1.3 3.2 2.4 3.6 2.4.8 0 14.5-16 13.9-16.3-.1-.1-1.5-1.3-3.1-2.6l-2.7-2.5-2.9 2.8-2.9 2.7-3.6-3.1-3.6-3.2 2.1-3 2.2-3-3-3-3-2.9-7.1 8.4zM375.2 419.1c-1.7 1.2-3.2 2.4-3.2 2.8 0 .4 2.8 4.6 6.3 9.4l6.3 8.6 3.2-2.2c1.7-1.2 3.2-2.6 3.2-3 0-.7-9.6-14.3-11.9-16.9-.3-.4-2.1.2-3.9 1.3zM157.9 445.7c-1.2 2.7-2.4 6.7-2.6 9.1-.7 5.2 1 7.5 8.2 10.8 6 2.8 11.5 3.1 14.3.6 1.8-1.4 7.2-13 7.2-15.3 0-.9-6.9-3.3-7.6-2.7-.2.3-1.5 3.1-2.8 6.4-2.8 6.9-4.4 8.2-8.3 6.8-3.7-1.3-3.9-3.9-.9-11.4l2.5-6.1-3.4-1.5c-1.9-.8-3.7-1.4-4-1.4-.3 0-1.5 2.1-2.6 4.7zM322.7 447.5c-4.9 1.8-9 3.5-9.2 3.7-.2.2 1.5 4.9 3.7 10.5l3.9 10.2 3.7-1.6c2-.8 3.8-1.6 4-1.8.1-.1-.5-1.8-1.3-3.8-.8-2-1.5-3.9-1.5-4.2 0-1.4 4.5-.2 8 2.1 3.6 2.4 4.2 2.5 7.7 1.4 2.1-.7 4.2-1.5 4.6-1.7 1.1-.6-7.2-6.3-9.1-6.3-.9 0-.7-.8.7-2.6 2.6-3.3 2.6-4.9.1-7.4-2.7-2.7-5-2.5-15.3 1.5zm9 4.2c.3.7-1.2 2-3.2 3-3.1 1.5-3.7 1.5-4.5.3-1.4-2.3-1.2-3 1.3-4 2.8-1.2 5.9-.8 6.4.7zM185.6 461.7c-1.4 5.9-2.4 10.8-2.3 10.9.2.2 2.1.6 4.4 1 4 .6 4 .6 4.7-3l.7-3.5 6.4.6c7.4.7 10.5-1 10.5-5.6 0-4.7-1.9-6-12-8.6-3.6-.9-7.2-1.8-8.2-2.1-1.3-.4-2.1 1.4-4.2 10.3zm15.5-2.1c1.6 1.9.2 3.4-3.2 3.4-2.4 0-2.9-.4-2.9-2.3 0-1.3.3-2.6.6-2.9.8-.9 4.2.2 5.5 1.8zM293.9 456c-10 3-13.1 13.3-5.8 19.4 6.6 5.6 22 1.7 25-6.2 1.3-3.4-.6-9.7-3.8-12.1-2.7-2.2-10.1-2.7-15.4-1.1zm9.5 6.2c4.7 6.6-2.7 14.5-8.6 9.1-2.4-2.2-2.5-8.8 0-10.2 3-1.8 7-1.3 8.6 1.1zM214.5 458.4c-.7 2.3-2.4 20-2 20.5.4.4 18.7 2.9 22.3 3.1.6 0 1.2-1.1 1.2-2.4 0-2.3-.4-2.5-7-3.2-7.4-.7-8.4-1.2-7.4-3.8.5-1.3 1.7-1.5 7.5-1 6.5.7 6.9.6 6.9-1.4 0-1.8-.8-2.2-7-2.8-5.8-.5-7-1-6.8-2.3.3-1.3 1.6-1.5 8.1-1.3 7.3.4 7.7.3 7.7-1.7 0-1.2-.6-2.1-1.2-2.1-.7-.1-6-.7-11.6-1.4-7.4-.9-10.5-1-10.7-.2zM270.3 463.7c.4 2.6.9 7.6 1.3 11l.7 6.3h4.3c5 0 4.8 1 3.1-12.5l-1.2-9-4.4-.3-4.4-.3.6 4.8zM241 472v11h9v-4.5c0-5.9 1.9-5.9 6.2 0 3.1 4.1 3.6 4.4 8.1 4.5 2.6 0 4.7-.3 4.7-.7 0-.4-1.8-2.8-4.1-5.5-2.6-3.1-3.5-4.8-2.5-4.8 1.6 0 4.6-3.7 4.6-5.7 0-.7-.9-2.2-2-3.3-1.8-1.8-3.3-2-13-2h-11v11zm16.6-5.8c.9 1.4-2.3 3.8-5.3 3.8-1.8 0-2.3-.6-2.3-2.5 0-2.2.4-2.5 3.4-2.5 1.9 0 3.8.5 4.2 1.2z"/></svg>